<svg width="1920" height="1080" viewBox="0 0 1920 1080" fill="none" xmlns="http://www.w3.org/2000/svg">
  <rect width="1920" height="1080" fill="#090908" />
  <circle cx="1650" cy="140" r="320" fill="#C8A560" fill-opacity="0.14" />
  <circle cx="310" cy="980" r="360" fill="#C8A560" fill-opacity="0.1" />
  <rect x="1150" y="180" width="520" height="720" rx="24" fill="#12110D" />
  <rect x="1190" y="230" width="200" height="280" rx="14" fill="#1D1C16" />
  <rect x="1410" y="230" width="220" height="280" rx="14" fill="#1A1914" />
  <rect x="1190" y="540" width="440" height="52" rx="8" fill="#2A271F" />
  <rect x="1190" y="612" width="440" height="18" rx="6" fill="#2A271F" />
  <rect x="1190" y="646" width="360" height="18" rx="6" fill="#2A271F" />
  <rect x="240" y="240" width="760" height="560" rx="28" fill="#0E0D0B" />
  <rect x="290" y="300" width="220" height="40" rx="12" fill="#C8A560" fill-opacity="0.75" />
  <rect x="290" y="380" width="620" height="84" rx="14" fill="#F4F2EB" fill-opacity="0.9" />
  <rect x="290" y="490" width="540" height="28" rx="10" fill="#B9B3A7" fill-opacity="0.75" />
  <rect x="290" y="540" width="490" height="28" rx="10" fill="#B9B3A7" fill-opacity="0.55" />
  <rect x="290" y="630" width="220" height="62" rx="31" fill="#C8A560" />
  <rect x="530" y="630" width="220" height="62" rx="31" stroke="#C8A560" fill="none" />
</svg>
